<?xml version="1.0" standalone="no"?><!DOCTYPE svg PUBLIC "-//W3C//DTD SVG 1.1//EN" "http://www.w3.org/Graphics/SVG/1.1/DTD/svg11.dtd"><svg t="1766328980125" class="icon" viewBox="0 0 1024 1024" version="1.1" xmlns="http://www.w3.org/2000/svg" p-id="30867" xmlns:xlink="http://www.w3.org/1999/xlink" width="200" height="200"><path d="M759.466667 40.96H264.533333c-32.989867 0-59.733333 26.743467-59.733333 59.733333v781.653334c0 32.989867 26.743467 59.733333 59.733333 59.733333h63.146667c0 22.621867 18.338133 40.96 40.96 40.96h286.72c22.621867 0 40.96-18.338133 40.96-40.96h63.146667c32.989867 0 59.733333-26.743467 59.733333-59.733333V100.693333c0-32.989867-26.743467-59.733333-59.733333-59.733333z m18.773333 841.386667c0 10.350933-8.4224 18.773333-18.773333 18.773333H264.533333c-10.350933 0-18.773333-8.4224-18.773333-18.773333V100.693333c0-10.350933 8.4224-18.773333 18.773333-18.773333h494.933334c10.350933 0 18.773333 8.4224 18.773333 18.773333v781.653334z" p-id="30868" fill="#ffffff"></path><path d="M512 368.64c56.5504 0 102.4-45.8496 102.4-102.4s-45.8496-102.4-102.4-102.4-102.4 45.8496-102.4 102.4 45.8496 102.4 102.4 102.4z m0-163.84c33.877333 0 61.44 27.562667 61.44 61.44s-27.562667 61.44-61.44 61.44-61.44-27.562667-61.44-61.44 27.562667-61.44 61.44-61.44z" p-id="30869" fill="#ffffff"></path><path d="M512 286.72c7.867733 0 14.242133-6.3744 14.242133-14.242133C526.242133 264.618667 512 210.773333 512 210.773333s-14.242133 53.845333-14.242133 61.704534c0 7.867733 6.3744 14.242133 14.242133 14.242133zM474.094933 662.596267h25.344c1.911467 0 3.310933 1.792 2.850134 3.643733l-13.431467 53.725867c-0.768 3.054933 3.165867 5.000533 5.137067 2.542933l58.197333-72.746667c1.536-1.92 0.170667-4.770133-2.286933-4.770133h-25.344c-1.911467 0-3.310933-1.792-2.850134-3.643733l13.431467-53.725867c0.768-3.054933-3.165867-5.000533-5.137067-2.542933l-58.197333 72.746666c-1.536 1.928533-0.170667 4.770133 2.286933 4.770134z" p-id="30870" fill="#ffffff"></path><path d="M368.64 675.84c0 79.172267 64.187733 143.36 143.36 143.36s143.36-64.187733 143.36-143.36-143.36-248.32-143.36-248.32-143.36 169.147733-143.36 248.32z m181.2736-130.6624C609.749333 632.2944 614.4 667.2128 614.4 675.84c0 27.349333-10.6496 53.0688-29.994667 72.405333C565.0688 767.5904 539.349333 778.24 512 778.24s-53.0688-10.6496-72.405333-29.994667C420.2496 728.9088 409.6 703.189333 409.6 675.84c0-8.593067 4.625067-43.383467 64.110933-130.1248 13.3632-19.4816 26.820267-37.649067 38.289067-52.590933 11.349333 14.788267 24.6528 32.7424 37.9136 52.053333z" p-id="30871" fill="#ffffff"></path></svg>