<?xml version="1.0" standalone="no"?><!DOCTYPE svg PUBLIC "-//W3C//DTD SVG 1.1//EN" "http://www.w3.org/Graphics/SVG/1.1/DTD/svg11.dtd"><svg t="1766329256453" class="icon" viewBox="0 0 1024 1024" version="1.1" xmlns="http://www.w3.org/2000/svg" p-id="31922" xmlns:xlink="http://www.w3.org/1999/xlink" width="200" height="200"><path d="M512 0a512 512 0 1 0 512 512 512 512 0 0 0-512-512z m440.32 512A440.32 440.32 0 1 1 512 71.68 441.6 441.6 0 0 1 952.32 512z" p-id="31923" fill="#ffffff"></path><path d="M566.528 338.496A64.512 64.512 0 1 0 502.144 273.92a63.36 63.36 0 0 0 64.384 64.576z" p-id="31924" fill="#ffffff"></path><path d="M592.32 491.904c24.384-68.864 0-111.872-60.224-90.368a523.712 523.712 0 0 0-127.616 77.44c-43.008 32.96-21.504 30.144 4.288 21.504 38.72-11.456 86.08-32.96 73.152 20.096l-55.936 190.72c-21.504 64.512 21.504 124.8 94.656 73.152 67.392-50.176 120.448-98.944 120.448-98.944-153.472 77.504-74.624-123.328-48.768-193.6z" p-id="31925" fill="#ffffff"></path></svg>