<?xml version="1.0" standalone="no"?><!DOCTYPE svg PUBLIC "-//W3C//DTD SVG 1.1//EN" "http://www.w3.org/Graphics/SVG/1.1/DTD/svg11.dtd"><svg t="1766328887285" class="icon" viewBox="0 0 1024 1024" version="1.1" xmlns="http://www.w3.org/2000/svg" p-id="28490" xmlns:xlink="http://www.w3.org/1999/xlink" width="200" height="200"><path d="M699.456 415.488c21.28-29.92 67.744-8.096 60.64 28.32l-30.72 153.696h88.992c28.352 0 44.896 33.152 28.352 55.808l-181.152 249.952c-21.28 29.92-67.744 8.096-60.64-28.32l30.72-153.696h-89.792c-28.352 0-44.096-32.352-27.552-55.808z m-162.272-266.144c15.744 0 29.152 13.76 29.152 29.92v39.648h79.552c16.544 0 29.152 13.76 29.152 29.92v127.808a87.488 87.488 0 0 0-11.04 12.928l-46.464 63.904v-174.72H314.272V767.36h267.008l-11.808 59.872H285.12c-15.744 0-29.152-13.76-29.152-29.92V248.832a29.44 29.44 0 0 1 29.152-29.92h79.552V179.264a29.44 29.44 0 0 1 29.152-29.92z m-63.008 504.768a79.136 79.136 0 0 0 1.568 67.936l2.368 4.864h-125.248v-72.8z m77.984-111.616l-52.768 72.8h-146.496v-72.8h199.264z m25.984-112.448v72.8h-225.28v-72.8h225.28z m0-111.648v72.8h-225.28V318.4h225.28z" p-id="28491" fill="#ffffff"></path></svg>