<?xml version="1.0" standalone="no"?><!DOCTYPE svg PUBLIC "-//W3C//DTD SVG 1.1//EN" "http://www.w3.org/Graphics/SVG/1.1/DTD/svg11.dtd"><svg t="1766326976574" class="icon" viewBox="0 0 1024 1024" version="1.1" xmlns="http://www.w3.org/2000/svg" p-id="11351" xmlns:xlink="http://www.w3.org/1999/xlink" width="200" height="200"><path d="M956.608 922.88h-29.44V592.768c0-17.728-8.832-41.6-29.952-50.368L629.888 367.616v-273.92l-2.944-6.08c-12.096-29.824-38.656-44.8-71.296-38.848L136.32 173.568c-23.872 8.896-41.6 32.704-41.6 59.456v689.792h-29.952a29.888 29.888 0 0 0-29.952 30.016c0 18.24 12.096 30.016 29.952 30.016h891.776c18.24 0 30.016-12.16 30.016-30.016-0.192-18.24-12.288-30.016-30.016-30.016z m-89.216-333.312v333.248H629.888V435.712l237.504 153.856zM153.536 233.024l416-124.8v814.592h-416V233.024z m297.344 92.16H272.768c-18.24 0-30.016 11.712-30.016 29.952 0 18.24 12.16 29.952 30.016 29.952h178.112c18.24 0 29.952-11.712 29.952-29.952 0-18.432-12.288-30.016-29.952-30.016z m0 177.92H272.768c-18.24 0-30.016 12.032-30.016 29.952v0.32c0 18.304 12.16 30.016 30.016 30.016h178.112c18.24 0 29.952-12.16 29.952-30.016V533.12c0-18.24-12.288-30.016-29.952-30.016z m0 178.56H272.768c-18.24 0-30.016 11.776-30.016 30.08v0.32c0 18.24 12.16 29.952 30.016 29.952h178.112c18.24 0 29.952-11.712 29.952-29.952v-0.384c0-18.24-12.288-29.952-29.952-29.952z m237.888 30.4c0 18.24 12.096 29.952 29.952 29.952h59.456c18.24 0 29.952-11.712 29.952-29.952v-0.384c0-18.24-12.096-29.952-29.952-29.952h-59.456c-18.24 0-29.952 11.712-29.952 29.952v0.384z" fill="#ffffff" p-id="11352"></path></svg>