<?xml version="1.0" standalone="no"?><!DOCTYPE svg PUBLIC "-//W3C//DTD SVG 1.1//EN" "http://www.w3.org/Graphics/SVG/1.1/DTD/svg11.dtd"><svg t="1769868945763" class="icon" viewBox="0 0 1024 1024" version="1.1" xmlns="http://www.w3.org/2000/svg" p-id="4774" xmlns:xlink="http://www.w3.org/1999/xlink" width="200" height="200"><path d="M758.72 194.048a48.512 48.512 0 0 0 49.344-47.744V50.944a48.512 48.512 0 0 0-49.344-47.744 48.512 48.512 0 0 0-49.344 47.744v95.36c0 26.368 22.08 47.744 49.344 47.744z m-493.44 0a48.512 48.512 0 0 0 49.344-47.744V50.944A48.512 48.512 0 0 0 265.28 3.2a48.512 48.512 0 0 0-49.344 47.744v95.36c0 26.368 22.08 47.744 49.28 47.744zM939.648 98.56h-82.24v47.68c0 52.672-44.16 95.36-98.688 95.36-54.528 0-98.688-42.688-98.688-95.36v-47.68H607.424c0-1.152-40.96 0-95.424 0-54.528 0-95.36 0.512-95.36 0H363.904v47.68c0 52.672-44.16 95.36-98.688 95.36-54.528 0-98.688-42.688-98.688-95.36v-47.68H84.352a48.512 48.512 0 0 0-49.344 47.68v826.816c0 26.304 22.08 47.68 49.344 47.68h855.296a48.512 48.512 0 0 0 49.344-47.68V146.304a48.576 48.576 0 0 0-49.344-47.68zM725.76 861.824H298.176a35.648 35.648 0 0 1 0-71.296h427.648a35.648 35.648 0 0 1 0 71.296z m0-184.192H298.176a35.648 35.648 0 0 1 0-71.296h427.648a35.648 35.648 0 0 1 0 71.296z m0-184.256H298.176a35.648 35.648 0 0 1 0-71.232h427.648a35.648 35.648 0 0 1 0 71.232z" fill="#ffffff" p-id="4775"></path></svg>