<?xml version="1.0" standalone="no"?><!DOCTYPE svg PUBLIC "-//W3C//DTD SVG 1.1//EN" "http://www.w3.org/Graphics/SVG/1.1/DTD/svg11.dtd"><svg t="1766328959574" class="icon" viewBox="0 0 1024 1024" version="1.1" xmlns="http://www.w3.org/2000/svg" p-id="29740" xmlns:xlink="http://www.w3.org/1999/xlink" width="200" height="200"><path d="M942.08 271.36H81.92c-15.36 0-25.6-15.36-25.6-30.72s10.24-25.6 25.6-25.6h860.16c15.36 0 25.6 10.24 25.6 25.6s-10.24 30.72-25.6 30.72zM890.88 163.84H133.12c-15.36 0-25.6-10.24-25.6-25.6s10.24-25.6 25.6-25.6h752.64c15.36 0 25.6 10.24 25.6 25.6s-5.12 25.6-20.48 25.6zM1018.88 885.76V348.16c0-15.36-10.24-25.6-25.6-25.6H25.6c-15.36 0-25.6 10.24-25.6 25.6v542.72c0 15.36 10.24 25.6 25.6 25.6h972.8c15.36-5.12 25.6-10.24 20.48-30.72z m-378.88-143.36c-20.48 40.96-71.68 66.56-122.88 66.56-35.84 0-71.68-15.36-97.28-40.96-20.48-20.48-35.84-46.08-40.96-71.68h-30.72c-15.36 0-25.6-10.24-25.6-25.6s10.24-25.6 25.6-25.6h25.6v-56.32h-25.6c-15.36 0-25.6-10.24-25.6-25.6s10.24-25.6 25.6-25.6h30.72c5.12-25.6 20.48-51.2 40.96-61.44 25.6-25.6 61.44-40.96 97.28-40.96 51.2 0 102.4 25.6 122.88 66.56 5.12 10.24 5.12 30.72-10.24 35.84-10.24 5.12-30.72 5.12-35.84-10.24-15.36-25.6-46.08-40.96-76.8-40.96-35.84 0-71.68 25.6-81.92 56.32H512c15.36 0 25.6 10.24 25.6 25.6s-10.24 25.6-25.6 25.6H430.08v56.32H512c15.36 0 25.6 10.24 25.6 25.6s-10.24 25.6-25.6 25.6H440.32c10.24 30.72 46.08 56.32 81.92 56.32 30.72 0 61.44-15.36 76.8-40.96 5.12-15.36 20.48-15.36 35.84-10.24 10.24 0 15.36 20.48 5.12 35.84z" p-id="29741" fill="#ffffff"></path></svg>