<?xml version="1.0" standalone="no"?><!DOCTYPE svg PUBLIC "-//W3C//DTD SVG 1.1//EN" "http://www.w3.org/Graphics/SVG/1.1/DTD/svg11.dtd"><svg t="1769872480410" class="icon" viewBox="0 0 1024 1024" version="1.1" xmlns="http://www.w3.org/2000/svg" p-id="6872" data-darkreader-inline-fill="" xmlns:xlink="http://www.w3.org/1999/xlink" width="200" height="200"><path d="M864.426667 85.333333H289.450667c-40.96 0-74.24 33.28-74.24 74.24v575.018667c0 40.96 33.28 74.24 74.24 74.24H864.426667c40.917333 0 74.197333-33.28 74.197333-74.24V159.573333C938.666667 118.613333 905.386667 85.333333 864.426667 85.333333zM289.450667 734.592V159.573333H864.426667v575.061334H289.450667zM159.530667 215.168C118.613333 215.168 85.333333 248.448 85.333333 289.408V864.426667C85.333333 905.386667 118.613333 938.666667 159.573333 938.666667h575.018667c40.96 0 74.24-33.28 74.24-74.24H159.530667V215.210667z" fill="#ffffff" p-id="6873" data-darkreader-inline-fill="" style="--darkreader-inline-fill: var(--darkreader-background-ffffff, #181a1b);"></path></svg>