<?xml version="1.0" standalone="no"?><!DOCTYPE svg PUBLIC "-//W3C//DTD SVG 1.1//EN" "http://www.w3.org/Graphics/SVG/1.1/DTD/svg11.dtd"><svg t="1766327202545" class="icon" viewBox="0 0 1024 1024" version="1.1" xmlns="http://www.w3.org/2000/svg" p-id="14318" xmlns:xlink="http://www.w3.org/1999/xlink" width="200" height="200"><path d="M512 102.4c152.608 0 277.4912 118.6944 287.3728 268.8H870.4a38.4 38.4 0 0 1 38.4 38.4v204.8a38.4 38.4 0 0 1-38.4 38.4h-71.0272c-9.7792 148.544-132.1792 266.3232-282.6112 268.7616L512 921.6v-83.2c111.9744 0 202.9632-89.8688 204.7744-201.408L716.8 633.6V390.4c0-113.1072-91.6928-204.8-204.8-204.8-113.1072 0-204.8 91.6928-204.8 204.8v262.4H153.6a38.4 38.4 0 0 1-38.4-38.4V409.6a38.4 38.4 0 0 1 38.4-38.4h71.0272C234.5088 221.0944 359.392 102.4 512 102.4z m100.4544 508.2624l58.4064 59.264C630.2848 710.7264 574.0928 736 512 736c-61.0432 0-116.3776-24.416-156.7808-64.0128l58.8288-58.8416A140.3328 140.3328 0 0 0 512 652.8c39.3344 0 74.9056-16.128 100.4544-42.1376zM230.4 448h-38.4v128h38.4V448z m601.6 0h-38.4v128h38.4V448z" fill="#ffffff" p-id="14319"></path></svg>