<?xml version="1.0" standalone="no"?><!DOCTYPE svg PUBLIC "-//W3C//DTD SVG 1.1//EN" "http://www.w3.org/Graphics/SVG/1.1/DTD/svg11.dtd"><svg t="1766326743208" class="icon" viewBox="0 0 1024 1024" version="1.1" xmlns="http://www.w3.org/2000/svg" p-id="9145" xmlns:xlink="http://www.w3.org/1999/xlink" width="200" height="200"><path d="M199.0656 346.88a38.4 38.4 0 0 1 18.3808 74.5472c-44.3392 10.9056-76.6464 52.736-76.6464 101.632 0 57.9584 44.8512 104.448 99.4816 104.448 6.144 0 12.1856-0.6144 18.0736-1.7408l8.7552-2.1504a38.4 38.4 0 0 1 21.6576 73.728c-15.6672 4.608-31.9488 6.912-48.4864 6.912-97.6896 0-176.2816-81.408-176.2816-181.1968 0-84.0192 56.1664-156.7744 135.0656-176.1792zM811.52 346.368c94.8736 17.5104 148.48 85.9648 148.48 176.6912 0 102.5024-101.3248 181.248-222.208 181.248-19.968 0-39.5776-2.1504-58.5216-6.2976a38.4 38.4 0 1 1 16.5376-75.008c13.4656 2.9696 27.5456 4.4544 41.984 4.4544 82.1248 0 145.408-49.152 145.408-104.3968 0-54.6304-28.16-90.5216-85.6064-101.1712a38.4 38.4 0 0 1 8.7552-76.1344l5.2224 0.6144z" fill="#ffffff" p-id="9146"></path><path d="M512 64c182.4768 0 330.9568 143.0016 330.9568 320.1536a38.4 38.4 0 1 1-76.8 0c0-134.0928-113.4592-243.3536-254.1568-243.3536S257.8432 250.0608 257.8432 384.1536a38.4 38.4 0 1 1-76.8 0c0-177.152 148.48-320.1536 330.9568-320.1536zM635.648 750.7968a38.4 38.4 0 0 1 56.832 51.3536l-3.84 4.2496-150.1696 143.0016a38.4 38.4 0 0 1-48.4864 3.6864l-4.7104-3.8912-144.384-139.6736a38.4 38.4 0 0 1 49.0496-58.88l4.4032 3.6864 117.8112 113.9712 123.4944-117.504z" fill="#ffffff" p-id="9147"></path><path d="M512 450.2528a38.4 38.4 0 0 1 38.0416 33.2288l0.3584 5.1712v381.44a38.4 38.4 0 0 1-76.4416 5.2224l-0.3584-5.2224v-381.44a38.4 38.4 0 0 1 38.4-38.4z" fill="#ffffff" p-id="9148"></path></svg>