<?xml version="1.0" standalone="no"?><!DOCTYPE svg PUBLIC "-//W3C//DTD SVG 1.1//EN" "http://www.w3.org/Graphics/SVG/1.1/DTD/svg11.dtd"><svg t="1766327451742" class="icon" viewBox="0 0 1869 1024" version="1.1" xmlns="http://www.w3.org/2000/svg" p-id="17260" xmlns:xlink="http://www.w3.org/1999/xlink" width="365.0390625" height="200"><path d="M927.16144308 164.38571167c310.85785562 0 609.68523423 294.71646217 621.68548439 307.71421326 8.73569846 8.73569846 13.0884336 19.5873095 13.0884336 31.55733215s-4.35273514 22.85186118-13.0884336 31.52710465C1536.84667731 548.27279532 1236.90088774 842.92880249 927.16144308 842.92880249S318.5643923 548.27279532 305.47595869 535.21458924A43.49712729 43.49712729 0 0 1 292.38752509 503.62702957c0-11.97002266 4.35273514-22.82163368 13.0884336-31.52710464C317.47620885 459.07194633 617.42199842 164.38571167 927.16144308 164.38571167zM423.27186185 519.64751435a1326.82862481 1326.82862481 0 0 0 131.45865535 98.45041167c129.16137841 84.51561332 257.20434586 134.14888779 372.43092588 134.14888847 115.28703438 0 243.63227486-49.69372947 372.88433577-134.20934279a1404.33149735 1404.33149735 0 0 0 150.68323747-114.41044212 1390.51760766 1390.51760766 0 0 0-150.32050941-114.38021461C1171.33781035 304.76142982 1042.93211485 255.06769967 927.16144308 255.06769967c-115.28703438 0-243.63227486 49.69372947-372.88433578 134.20934279a1405.57081833 1405.57081833 0 0 0-150.07869072 113.89657722c5.83387481 5.13864624 12.21184134 10.67024736 19.07344527 16.47389466zM745.79746641 496.886335c0-99.26654961 80.88833358-181.36397665 181.36397667-181.36397599s181.36397665 80.88833358 181.36397668 181.36397598-80.88833358 181.36397665-181.36397668 181.36397668-181.36397665-82.09742638-181.36397667-181.36397668z m261.01298995-1e-8c0-44.13190086-36.75643272-79.64901328-80.88833358-80.88833291A80.04196816 80.04196816 0 0 0 845.06401669 496.886335c0 45.34099433 36.75643272 80.88833358 80.85810609 80.88833358 45.34099433 0 80.88833358-36.78666023 80.88833358-80.88833359z" fill="#ffffff" p-id="17261"></path></svg>