<?xml version="1.0" standalone="no"?><!DOCTYPE svg PUBLIC "-//W3C//DTD SVG 1.1//EN" "http://www.w3.org/Graphics/SVG/1.1/DTD/svg11.dtd"><svg t="1769952069609" class="icon" viewBox="0 0 1024 1024" version="1.1" xmlns="http://www.w3.org/2000/svg" p-id="4736" data-darkreader-inline-fill="" xmlns:xlink="http://www.w3.org/1999/xlink" width="200" height="200"><path d="M675.072 885.344c26.816 0 53.632 21.312 53.632 53.312 0 32-21.44 53.344-53.632 53.344H299.488C224.384 992 160 922.656 160 842.656V181.344C160 101.344 224.384 32 299.52 32h375.552c32.192 0 53.632 21.344 53.632 53.344s-21.44 53.312-53.632 53.312H299.488c-16.096 0-32.192 21.344-32.192 42.688v661.312c0 21.344 16.096 42.688 32.192 42.688h375.584zM1013.28 480c5.344 10.656 10.72 21.344 10.72 32 0 10.656-5.376 21.344-10.72 32-5.376 0-5.376 5.344-5.376 5.344l-166.336 165.312c-21.44 21.344-53.632 21.344-75.104 0-21.44-21.312-21.44-53.312 0-74.656l75.104-74.656h-305.792c-32.192 0-53.664-21.344-53.664-53.344s21.44-53.344 53.664-53.344h305.792L766.464 384c-21.44-21.344-21.44-53.344 0-74.656 21.44-21.344 53.664-21.344 75.104 0l166.336 165.312c5.376 0 5.376 5.344 5.376 5.344z" fill="#ffffff" p-id="4737" data-darkreader-inline-fill="" style="--darkreader-inline-fill: var(--darkreader-background-ffffff, #181a1b);"></path></svg>