<?xml version="1.0" standalone="no"?><!DOCTYPE svg PUBLIC "-//W3C//DTD SVG 1.1//EN" "http://www.w3.org/Graphics/SVG/1.1/DTD/svg11.dtd"><svg t="1766329323815" class="icon" viewBox="0 0 1024 1024" version="1.1" xmlns="http://www.w3.org/2000/svg" p-id="32989" xmlns:xlink="http://www.w3.org/1999/xlink" width="200" height="200"><path d="M768 167.999093C768 132.65337 739.320192 104 703.964872 104L216.035128 104C180.669503 104 152 132.63837 152 168.077782L152 847.922216C152 883.3114 180.726425 912 215.94908 912L524 912 832.05092 912C867.369024 912 896 883.36228 896 848.03152L896 311.96848C896 276.639664 867.274304 248 832 248L768 248 768 167.999093 768 167.999093ZM768 296 823.981048 296C841.664624 296 856 310.381987 856 327.995317L856 840.00468C856 857.675208 841.665424 872 823.981048 872L768 872 768 296 768 296ZM194.514286 167.78325C194.514286 156.058166 204.078533 146.526316 215.927242 146.526316L704.529901 146.526316C716.422786 146.526316 725.942857 155.995201 725.942857 167.78325L725.942857 848.216752C725.942857 859.941832 716.37861 869.473688 704.529901 869.473688L215.927242 869.473688C204.034357 869.473688 194.514286 860.0048 194.514286 848.216752L194.514286 167.78325 194.514286 167.78325 194.514286 167.78325 194.514286 167.78325 194.514286 167.78325 194.514286 167.78325 194.514286 167.78325 194.514286 167.78325 194.514286 167.78325ZM237.028571 614.31579 683.428571 614.31579 683.428571 656.842106 237.028571 656.842106 237.028571 614.31579 237.028571 614.31579 237.028571 614.31579 237.028571 614.31579 237.028571 614.31579 237.028571 614.31579 237.028571 614.31579 237.028571 614.31579ZM492.114286 231.578947 683.428571 231.578947 683.428571 274.105263 492.114286 274.105263 492.114286 231.578947 492.114286 231.578947 492.114286 231.578947 492.114286 231.578947 492.114286 231.578947 492.114286 231.578947 492.114286 231.578947 492.114286 231.578947ZM492.114286 359.157894 683.428571 359.157894 683.428571 401.68421 492.114286 401.68421 492.114286 359.157894 492.114286 359.157894 492.114286 359.157894 492.114286 359.157894 492.114286 359.157894 492.114286 359.157894 492.114286 359.157894 492.114286 359.157894ZM492.114286 486.736842 683.428571 486.736842 683.428571 529.263158 492.114286 529.263158 492.114286 486.736842 492.114286 486.736842 492.114286 486.736842 492.114286 486.736842 492.114286 486.736842 492.114286 486.736842 492.114286 486.736842 492.114286 486.736842ZM237.028571 741.894737 683.428571 741.894737 683.428571 784.421053 237.028571 784.421053 237.028571 741.894737 237.028571 741.894737 237.028571 741.894737 237.028571 741.894737 237.028571 741.894737 237.028571 741.894737 237.028571 741.894737 237.028571 741.894737ZM237.028571 231.578947 449.6 231.578947 449.6 529.263158 237.028571 529.263158 237.028571 231.578947 237.028571 231.578947 237.028571 231.578947 237.028571 231.578947 237.028571 231.578947 237.028571 231.578947Z" fill="#ffffff" p-id="32990"></path></svg>