<?xml version="1.0" standalone="no"?><!DOCTYPE svg PUBLIC "-//W3C//DTD SVG 1.1//EN" "http://www.w3.org/Graphics/SVG/1.1/DTD/svg11.dtd"><svg t="1766329526501" class="icon" viewBox="0 0 1024 1024" version="1.1" xmlns="http://www.w3.org/2000/svg" p-id="41416" xmlns:xlink="http://www.w3.org/1999/xlink" width="200" height="200"><path d="M960 192.61C959.92 121.77 902.23 64.08 831.37 64H192.61C121.77 64.08 64.08 121.77 64 192.63v638.76c0.08 70.84 57.77 128.54 128.63 128.61h638.76c70.84-0.08 128.54-57.77 128.61-128.62V744.1c0-22.9-18.63-41.53-41.53-41.53s-41.53 18.63-41.53 41.53v87.27c-0.03 25.11-20.47 45.56-45.57 45.58H192.64c-25.11-0.03-45.56-20.47-45.58-45.57V192.64c0.03-25.11 20.47-45.56 45.57-45.58h638.74c25.11 0.03 45.56 20.47 45.58 45.57v87.06c0 22.9 18.63 41.53 41.53 41.53S960 302.58 960 279.68v-87.07z" p-id="41417" fill="#ffffff"></path><path d="M724.05 670.37c-0.12 10.58 3.96 20.57 11.47 28.13 7.11 7.39 16.72 11.52 27.06 11.64h0.45c10.45 0 20.3-4.09 27.77-11.56l157.53-157.46 0.61-0.66c13.82-16.47 13.82-40.38 0-56.84l-0.29-0.34L792.07 326.7c-7.08-7.39-16.67-11.53-27-11.66-10.61-0.15-20.61 3.95-28.19 11.5-7.39 7.11-11.52 16.71-11.63 27.05-0.12 10.62 3.98 20.64 11.55 28.21l91.16 91.16H702.89c-10.43 0.01-20.23 4.07-27.6 11.45-7.37 7.38-11.42 17.18-11.42 27.61 0.01 10.43 4.07 20.23 11.45 27.6 7.37 7.36 17.17 11.42 27.58 11.42h125.06l-92.29 92.29c-7.38 7.11-11.5 16.71-11.62 27.04zM575.33 614.69c-20.8 0-35.89 15.45-35.89 36.8 0 26.92-33.48 44.32-85.29 44.32-58.3 0-107.56-33.06-107.56-72.21v-16.41h124.86c20.8 0 35.89-15.45 35.89-36.79s-15.09-36.79-35.89-36.79H346.59v-35.45h124.86c20.8 0 35.89-15.45 35.89-36.78s-15.09-36.8-35.89-36.8H346.59v-16.41c0-41.16 40.91-72.2 95.18-72.2 70.95 0 93.11 15.21 95.21 19.36 0.18 21.12 15.2 36.41 35.89 36.41s35.9-15.45 35.9-36.8c0-59.78-55.35-90.02-164.5-90.02-92.24 0-164.51 62.93-164.51 143.27v16.41h-18.54c-20.8 0-35.91 15.45-35.91 36.8s15.11 36.78 35.91 36.78h18.52v35.4h-18.52c-22.16 0-35.91 14.09-35.91 36.79 0 21.33 15.11 36.79 35.91 36.79h18.52v16.41c0 39.1 19.23 75.6 54.13 102.79 33.03 25.75 77.77 40.55 122.75 40.55 45.27 0 83.81-10.78 111.43-31.14 28.27-20.88 43.23-50.02 43.23-84.28 0-21.33-15.11-36.8-35.91-36.8h-0.04z" p-id="41418" fill="#ffffff"></path></svg>