<?xml version="1.0" standalone="no"?><!DOCTYPE svg PUBLIC "-//W3C//DTD SVG 1.1//EN" "http://www.w3.org/Graphics/SVG/1.1/DTD/svg11.dtd"><svg t="1766329393121" class="icon" viewBox="0 0 1024 1024" version="1.1" xmlns="http://www.w3.org/2000/svg" p-id="35727" xmlns:xlink="http://www.w3.org/1999/xlink" width="200" height="200"><path d="M306.304 128a178.304 178.304 0 1 0 0 356.582h178.278V306.304A178.278 178.278 0 0 0 306.304 128M435.2 435.2h-128c-68.045 0-124.314-60.851-124.314-128.896a123.571 123.571 0 0 1 123.418-123.443c68.045 0 128.896 56.269 128.896 124.339v128M896 306.304a178.304 178.304 0 1 0-356.582 0v178.278h178.278A178.278 178.278 0 0 0 896 306.304m-307.2 0.896c0-68.07 60.851-124.34 128.896-124.34a123.597 123.597 0 0 1 123.418 123.444c0.05 68.173-53.504 128.87-121.78 128.154L588.8 435.2v-128M128 717.696a178.304 178.304 0 1 0 356.582 0V539.418H306.304A178.278 178.278 0 0 0 128 717.696m307.2-0.896c0 68.07-60.851 124.34-128.896 124.34a123.571 123.571 0 0 1-123.418-123.444c0-68.045 56.27-128.896 124.314-128.896h128v128m282.496-177.382H539.418v178.278a178.304 178.304 0 1 0 178.278-178.278m0 301.721C649.651 841.14 588.8 784.87 588.8 716.8v-128h128c68.045 0 124.314 60.851 124.314 128.896a123.571 123.571 0 0 1-123.418 123.443m0 0z" p-id="35728" fill="#ffffff"></path></svg>