<svg version="1.0" xmlns="http://www.w3.org/2000/svg" width="800.000000" height="800.000000" viewBox="0 0 800.000000 800.000000" preserveAspectRatio="xMidYMid meet">
  <metadata>
    <rdf:RDF xmlns:rdf="http://www.w3.org/1999/02/22-rdf-syntax-ns#" xmlns:rdfs="http://www.w3.org/2000/01/rdf-schema#" xmlns:dc="http://purl.org/dc/elements/1.1/">
      <rdf:Description dc:format="image/svg+xml" dc:Label="1" dc:ContentProducer="001191330110MACRLGPT8B00000" dc:ProduceID="337371456" dc:ReservedCode1="i1eHIcn2GS/4aV8HWIJJVU1muLUSTwUP9/y+kY3s4S4=" dc:ContentPropagator="001191330110MACRLGPT8B00000" dc:PropagateID="337371456" dc:ReservedCode2="i1eHIcn2GS/4aV8HWIJJVU1muLUSTwUP9/y+kY3s4S4="/>
    </rdf:RDF>
  </metadata>
  <g transform="translate(0.000000,800.000000) scale(0.100000,-0.100000)" fill="#000000" stroke="none">
    <path d="M3895 6251 c-46 -21 -78 -53 -96 -96 -18 -43 -25 -472 -9 -543 39 -173 273 -206 349 -50 20 42 21 60 21 305 0 251 -1 261 -23 304 -17 34 -35 50 -77 72 -62 31 -109 34 -165 8z"/>
    <path d="M2365 5653 c-79 -41 -121 -115 -110 -192 4 -25 15 -59 25 -76 10 -16 106 -116 212 -221 175 -173 197 -192 236 -199 146 -24 259 96 222 236 -10 38 -40 73 -209 243 -108 109 -210 205 -228 212 -43 18 -111 17 -148 -3z"/>
    <path d="M5425 5651 c-25 -12 -111 -91 -231 -212 -155 -156 -194 -202 -203 -234 -15 -54 -14 -79 4 -123 43 -102 161 -150 253 -103 20 11 123 106 229 213 155 156 193 201 202 233 15 54 14 79 -5 123 -43 104 -151 149 -249 103z"/>
    <path d="M3825 5129 c-249 -31 -504 -164 -690 -360 -287 -301 -394 -715 -290 -1124 168 -663 879 -1050 1525 -830 702 239 1017 1061 658 1713 -56 102 -177 252 -256 319 -270 229 -596 326 -947 282z"/>
    <path d="M1735 4114 c-47 -25 -66 -46 -86 -89 -43 -93 -10 -190 80 -237 l53 -28 262 0 c232 0 266 3 301 19 134 61 149 238 28 321 l-36 25 -286 2 c-247 2 -290 0 -316 -13z"/>
    <path d="M5559 4101 c-101 -63 -115 -197 -30 -282 56 -56 87 -61 385 -57 l263 3 40 27 c96 63 110 215 26 290 -48 44 -79 48 -366 48 l-273 0 -45 -29z"/>
    <path d="M2715 2928 c-32 -9 -75 -45 -223 -192 -182 -179 -224 -231 -237 -293 -8 -38 10 -108 37 -146 46 -65 167 -88 238 -46 54 32 389 378 411 424 66 143 -70 295 -226 253z"/>
    <path d="M5116 2925 c-56 -20 -86 -45 -110 -90 -24 -47 -27 -127 -5 -167 18 -34 374 -395 414 -420 19 -11 49 -18 84 -18 78 0 135 35 167 103 53 115 30 158 -213 398 -152 149 -196 188 -229 197 -51 15 -59 15 -108 -3z"/>
    <path d="M3895 2412 c-23 -11 -53 -33 -67 -50 -43 -51 -50 -112 -46 -372 3 -264 6 -273 81 -334 35 -28 46 -31 106 -31 84 0 137 31 170 97 20 42 21 60 21 303 0 243 -1 261 -21 303 -42 87 -155 126 -244 84z"/>
  </g>
</svg>