<?xml version="1.0" standalone="no"?><!DOCTYPE svg PUBLIC "-//W3C//DTD SVG 1.1//EN" "http://www.w3.org/Graphics/SVG/1.1/DTD/svg11.dtd"><svg t="1766327525281" class="icon" viewBox="0 0 1024 1024" version="1.1" xmlns="http://www.w3.org/2000/svg" p-id="19535" xmlns:xlink="http://www.w3.org/1999/xlink" width="200" height="200"><path d="M936.234667 80.682667L524.8 0 121.301333 80.682667 85.333333 86.229333v521.514667c0 31.317333 7.594667 62.464 22.869334 93.354667 15.146667 31.018667 34.986667 61.013333 59.605333 90.069333 24.533333 29.013333 52.48 56.576 83.754667 82.517333 31.274667 25.984 63.146667 49.152 95.616 69.461334 32.426667 20.309333 63.744 37.205333 93.866666 50.645333 30.122667 13.482667 56.576 22.698667 79.36 27.648l9.685334 1.92 10.496-1.92a411.178667 411.178667 0 0 0 77.653333-27.648 704.128 704.128 0 0 0 91.221333-50.645333 888.106667 888.106667 0 0 0 92.586667-69.461334 641.706667 641.706667 0 0 0 81.109333-82.602666 438.058667 438.058667 0 0 0 57.472-89.984 216.661333 216.661333 0 0 0 21.930667-93.354667V86.357333l-26.325333-5.674666z m-62.122667 537.472a165.973333 165.973333 0 0 1-16.384 71.168 306.261333 306.261333 0 0 1-43.861333 67.584 446.72 446.72 0 0 1-63.232 60.885333c-23.637333 18.773333-48.426667 36.010667-74.24 51.626667-25.173333 15.146667-51.242667 28.586667-78.165334 40.192-26.325333 11.306667-50.816 19.712-73.258666 25.258666v-468.48h-351.146667V137.386667l346.24-63.018667 4.906667 1.024v390.954667h349.141333v151.765333z" fill="#ffffff" p-id="19536"></path></svg>