<?xml version="1.0" standalone="no"?><!DOCTYPE svg PUBLIC "-//W3C//DTD SVG 1.1//EN" "http://www.w3.org/Graphics/SVG/1.1/DTD/svg11.dtd"><svg t="1766326604848" class="icon" viewBox="0 0 1024 1024" version="1.1" xmlns="http://www.w3.org/2000/svg" p-id="8092" xmlns:xlink="http://www.w3.org/1999/xlink" width="200" height="200"><path d="M697.6 559.7c-51.4 0-93-42.4-93-94.7 0-52.3 41.6-94.7 93-94.7s93 42.4 93 94.7c0 52.3-41.6 94.7-93 94.7zM163.2 630.8c-13.1 0-23.7 10.6-23.7 23.7s10.6 23.7 23.7 23.7h231.7c13.1 0 23.7-10.6 23.7-23.7s-10.6-23.7-23.7-23.7H163.2z m0-142.1c-13.1 0-23.7 10.6-23.7 23.7S150.1 536 163.2 536h161.9c13.1 0 23.7-10.6 23.7-23.7s-10.6-23.7-23.7-23.7H163.2z m0-142.1c-13.1 0-23.7 10.6-23.7 23.7S150.1 394 163.2 394h231.7c13.1 0 23.7-10.6 23.7-23.7s-10.6-23.7-23.7-23.7H163.2zM106.6 86h810c58.9 0 106.6 47.7 106.6 106.6v639.5c0 58.9-47.7 106.6-106.6 106.6h-810C47.7 938.7 0 891 0 832.1V192.6C0 133.8 47.7 86 106.6 86z m602.3 520.6l81.1 142.6 38-85.5h78.9L824.2 524.8c8.3-18.2 12.9-38.5 12.9-59.8 0-78.5-62.5-142.1-139.5-142.1S558.1 386.5 558.1 465c0 21.4 4.6 41.7 12.9 59.8l-82.7 138.9H567.2l38 85.5 81.1-142.6c7.5 0.7 15.1 0.7 22.6 0z m0 0" p-id="8093" fill="#ffffff"></path></svg>