<?xml version="1.0" standalone="no"?><!DOCTYPE svg PUBLIC "-//W3C//DTD SVG 1.1//EN" "http://www.w3.org/Graphics/SVG/1.1/DTD/svg11.dtd"><svg t="1766327741509" class="icon" viewBox="0 0 1024 1024" version="1.1" xmlns="http://www.w3.org/2000/svg" p-id="22031" xmlns:xlink="http://www.w3.org/1999/xlink" width="200" height="200"><path d="M186.368 826.88h153.6l15.872 7.68a358.4 358.4 0 1 0-153.6-139.264l18.944 31.232z m-51.2 76.8a41.472 41.472 0 0 1-38.912-55.808l40.96-113.152a434.688 434.688 0 1 1 183.808 168.96zM614.4 557.056c8.192 3.072 51.2 26.112 60.416 30.72s14.848 7.168 16.896 11.264a84.992 84.992 0 0 1-5.12 45.056 91.136 91.136 0 0 1-59.392 45.056 112.64 112.64 0 0 1-55.296-3.584 484.352 484.352 0 0 1-51.2-19.968A406.528 406.528 0 0 1 368.64 522.24a192.512 192.512 0 0 1-35.84-98.304 110.08 110.08 0 0 1 30.72-79.36 31.232 31.232 0 0 1 23.552-11.776h16.896c5.632 0 12.8 0 19.968 16.384s25.088 65.536 27.136 70.656a18.432 18.432 0 0 1 0 16.896 66.048 66.048 0 0 1-8.704 15.872c-4.608 5.632-9.216 12.288-13.312 16.896a14.336 14.336 0 0 0-4.096 19.456 284.16 284.16 0 0 0 51.2 66.048 238.08 238.08 0 0 0 70.656 47.104c8.704 4.608 13.824 4.096 18.944 0s22.016-27.648 28.16-37.376 10.752-10.752 20.48-7.68z" fill="#ffffff" p-id="22032"></path></svg>