<?xml version="1.0" standalone="no"?><!DOCTYPE svg PUBLIC "-//W3C//DTD SVG 1.1//EN" "http://www.w3.org/Graphics/SVG/1.1/DTD/svg11.dtd"><svg t="1766327763011" class="icon" viewBox="0 0 1027 1024" version="1.1" xmlns="http://www.w3.org/2000/svg" p-id="23090" xmlns:xlink="http://www.w3.org/1999/xlink" width="200.5859375" height="200"><path d="M618.057143 526.628571c-18.285714 0-36.571429 18.285714-36.571429 36.571429s18.285714 32.914286 36.571429 32.914286c25.6 0 47.542857-18.285714 47.542857-32.914286 0-21.942857-18.285714-36.571429-47.542857-36.571429z m-117.028572-175.542857c29.257143 0 47.542857-18.285714 47.542858-43.885714 0-29.257143-18.285714-43.885714-47.542858-43.885714-25.6 0-51.2 18.285714-51.2 43.885714 0 29.257143 25.6 43.885714 51.2 43.885714zM365.714286 724.114286c-47.542857 0-80.457143-7.314286-128-21.942857L109.714286 768l36.571428-109.714286c-91.428571-62.171429-146.285714-146.285714-146.285714-241.371428C3.657143 241.371429 168.228571 109.714286 365.714286 109.714286c175.542857 0 332.8 106.057143 365.714285 252.342857-10.971429-3.657143-25.6-3.657143-32.914285-3.657143-175.542857 0-307.2 131.657143-307.2 288.914286 0 25.6 3.657143 51.2 10.971428 76.8h-36.571428z m533.942857 128l25.6 91.428571-98.742857-54.857143c-36.571429 7.314286-73.142857 18.285714-109.714286 18.285715-171.885714 0-307.2-117.028571-307.2-263.314286s135.314286-263.314286 307.2-263.314286c160.914286 0 307.2 117.028571 307.2 263.314286 3.657143 80.457143-51.2 153.6-124.342857 208.457143zM248.685714 263.314286c-25.6 0-54.857143 18.285714-54.857143 43.885714S223.085714 351.085714 248.685714 351.085714 296.228571 332.8 296.228571 307.2c-3.657143-25.6-21.942857-43.885714-47.542857-43.885714z m570.514286 263.314285c-18.285714 0-36.571429 18.285714-36.571429 36.571429s18.285714 32.914286 36.571429 32.914286c25.6 0 43.885714-18.285714 43.885714-32.914286 3.657143-21.942857-18.285714-36.571429-43.885714-36.571429z" fill="#1DBA0F" p-id="23091"></path></svg>